# xmcd
#
# Track frame offsets:
#	183
#	17018
#	30613
#	43533
#	59933
#	73648
#	91943
#	107328
#	118435
#	135583
#	152003
#	168283
#
# Disc length: 2400 seconds
#
# Revision: 1
# Processed by: cddbd v1.5.1PL0 Copyright (c) Steve Scherf et al.
# Submitted via: EasyCDDAExtractor 6.0.0.1
#
DISCID=9e095e0c
DTITLE=Eigil Lindahl and Country Live
DYEAR=1991
DGENRE=Country
TTITLE0=Oldemor Og Den Lille Dreng
TTITLE1=A Hucker And A Trucker
TTITLE2=For A Long Long Time
TTITLE3=Hanging At Your Lifeline
TTITLE4=Cotton Jenny
TTITLE5=Always On My Mind
TTITLE6=Regnen Drypper Fra Mit Hår
TTITLE7=If Love Is Not Around The House
TTITLE8=Down Seeds And Stems Blues
TTITLE9=From The Bottom Of My Heart
TTITLE10=Happy Together For A while
TTITLE11=It Feels So Right
EXTD=
EXTT0=
EXTT1=
EXTT2=
EXTT3=
EXTT4=
EXTT5=
EXTT6=
EXTT7=
EXTT8=
EXTT9=
EXTT10=
EXTT11=
PLAYORDER=
